<svg width="40" height="40" xmlns="http://www.w3.org/2000/svg" xmlns:xlink="http://www.w3.org/1999/xlink" xml:space="preserve" overflow="hidden"><g transform="translate(-592 -312)"><path d="M630.208 342.333 621.875 329C621.708 328.75 621.458 328.625 621.167 328.625 620.875 328.625 620.625 328.792 620.458 329L618 332.917 623.25 341.417C623.708 342.083 623.792 342.917 623.5 343.667L629.417 343.667C629.75 343.667 630.042 343.5 630.208 343.208 630.375 342.917 630.375 342.583 630.208 342.333L630.208 342.333Z" fill="#FFFFFF"/><path d="M609.958 329.958 607.833 331.875 605.708 330 601.708 332.417 607.833 322.417 613.958 332.417 609.958 329.958ZM621.833 342.333 608.542 320.708C608.375 320.5 608.125 320.333 607.833 320.333 607.542 320.333 607.292 320.458 607.125 320.708L593.833 342.333C593.625 342.583 593.625 342.958 593.75 343.25 593.917 343.5 594.208 343.667 594.542 343.667L621.125 343.667C621.458 343.667 621.75 343.5 621.917 343.208 622.042 342.917 622.042 342.583 621.833 342.333Z" fill="#FFFFFF"/></g></svg>