<svg width="22" height="22" xmlns="http://www.w3.org/2000/svg" xmlns:xlink="http://www.w3.org/1999/xlink" xml:space="preserve" overflow="hidden"><g transform="translate(-592 -312)"><path d="M613.015 328.683 608.431 321.35C608.34 321.212 608.202 321.144 608.042 321.144 607.881 321.144 607.744 321.235 607.652 321.35L606.3 323.504 609.188 328.179C609.44 328.546 609.485 329.004 609.325 329.417L612.579 329.417C612.763 329.417 612.923 329.325 613.015 329.165 613.106 329.004 613.106 328.821 613.015 328.683L613.015 328.683Z" fill="#FFFFFF"/><path d="M601.877 321.877 600.708 322.931 599.54 321.9 597.34 323.229 600.708 317.729 604.077 323.229 601.877 321.877ZM608.408 328.683 601.098 316.79C601.006 316.675 600.869 316.583 600.708 316.583 600.548 316.583 600.41 316.652 600.319 316.79L593.008 328.683C592.894 328.821 592.894 329.027 592.963 329.188 593.054 329.325 593.215 329.417 593.398 329.417L608.019 329.417C608.202 329.417 608.362 329.325 608.454 329.165 608.523 329.004 608.523 328.821 608.408 328.683Z" fill="#FFFFFF"/></g></svg>